<svg xmlns="http://www.w3.org/2000/svg" width="32" height="32"><path d="M4.844 1a.5.5 0 0 0-.375.313l-3.344 8.874a.5.5 0 0 0-.063.094v.031A.5.5 0 0 0 1 10.5v.5c0 1.1.9 2 2 2 .363 0 .705-.11 1-.281V27H1.5a.5.5 0 0 0-.5.5v3a.5.5 0 0 0 .375.469.5.5 0 0 0 .031.031.5.5 0 0 0 .094 0h16.969a.5.5 0 0 0 .062 0 .5.5 0 0 0 .032 0H31.5a.5.5 0 0 0 .125 0 .5.5 0 0 0 .375-.5v-3a.5.5 0 0 0-.5-.5H29V12.719c.3.18.627.281 1 .281.137 0 .276-.004.406-.031a2.017 2.017 0 0 0 1.438-1.188c.05-.12.098-.245.125-.375.027-.13.031-.269.031-.406v-.531a.5.5 0 0 0 0-.063.5.5 0 0 0 0-.094.5.5 0 0 0-.031-.062.5.5 0 0 0 0-.031.5.5 0 0 0-.063-.094.5.5 0 0 0-.031-.031l-3.313-8.781-.03.03A.5.5 0 0 0 28.093 1H4.937a.5.5 0 0 0-.093 0zm.437 1H27.75L31 10.594V11c0 .563-.437 1-1 1a.952.952 0 0 1-.906-.594A1.1 1.1 0 0 1 29 11v-.031a.5.5 0 0 0 0-.031.5.5 0 0 0 0-.032.5.5 0 0 0 0-.062.5.5 0 0 0-.031-.031.5.5 0 0 0 0-.063.5.5 0 0 0-.032-.031.5.5 0 0 0-.156-.156.5.5 0 0 0-.031 0 .5.5 0 0 0-.063-.032.5.5 0 0 0-.468.063.5.5 0 0 0-.032.031.5.5 0 0 0-.03.031.5.5 0 0 0-.063.063.5.5 0 0 0-.032.062.5.5 0 0 0-.03.031.5.5 0 0 0 0 .063.5.5 0 0 0 0 .031.5.5 0 0 0-.032.063V11c0 .422-.233.788-.594.938-.12.05-.265.062-.406.062a.952.952 0 0 1-.906-.594A1.1 1.1 0 0 1 26 11a.5.5 0 0 0 0-.063.5.5 0 0 0 0-.03.5.5 0 0 0 0-.063.5.5 0 0 0-.031-.031.5.5 0 0 0 0-.063.5.5 0 0 0-.032-.031.5.5 0 0 0-.156-.156.5.5 0 0 0-.031 0 .5.5 0 0 0-.063-.032.5.5 0 0 0-.187-.031.5.5 0 0 0-.281.094.5.5 0 0 0-.032.031.5.5 0 0 0-.03.031.5.5 0 0 0-.063.063.5.5 0 0 0-.032.062.5.5 0 0 0-.03.031.5.5 0 0 0 0 .063.5.5 0 0 0 0 .031.5.5 0 0 0-.032.063.5.5 0 0 0 0 .031c0 .422-.233.788-.594.938-.12.05-.265.062-.406.062a.952.952 0 0 1-.906-.594A1.1 1.1 0 0 1 23 11a.5.5 0 0 0 0-.063.5.5 0 0 0 0-.03.5.5 0 0 0 0-.063.5.5 0 0 0-.031-.031.5.5 0 0 0 0-.063.5.5 0 0 0-.032-.031.5.5 0 0 0-.156-.156.5.5 0 0 0-.031 0 .5.5 0 0 0-.063-.032.5.5 0 0 0-.187-.031.5.5 0 0 0-.281.094.5.5 0 0 0-.032.031.5.5 0 0 0-.03.031.5.5 0 0 0-.063.063.5.5 0 0 0-.032.062.5.5 0 0 0-.03.031.5.5 0 0 0 0 .063.5.5 0 0 0 0 .031.5.5 0 0 0-.032.063.5.5 0 0 0 0 .031c0 .422-.233.788-.594.938-.12.05-.265.062-.406.062a.952.952 0 0 1-.906-.594A1.1 1.1 0 0 1 20 11a.5.5 0 0 0 0-.063.5.5 0 0 0 0-.03.5.5 0 0 0 0-.063.5.5 0 0 0-.031-.031.5.5 0 0 0 0-.063.5.5 0 0 0-.032-.031.5.5 0 0 0-.156-.156.5.5 0 0 0-.031 0 .5.5 0 0 0-.063-.032.5.5 0 0 0-.187-.031.5.5 0 0 0-.281.094.5.5 0 0 0-.032.031.5.5 0 0 0-.03.031.5.5 0 0 0-.063.063.5.5 0 0 0-.032.062.5.5 0 0 0-.03.031.5.5 0 0 0 0 .063.5.5 0 0 0 0 .031.5.5 0 0 0-.032.063.5.5 0 0 0 0 .031c0 .422-.233.788-.594.938a.5.5 0 0 0-.093.03c-.097.03-.206.032-.313.032a.952.952 0 0 1-.906-.594A1.1 1.1 0 0 1 17 11a.5.5 0 0 0 0-.063.5.5 0 0 0 0-.03.5.5 0 0 0 0-.063.5.5 0 0 0-.031-.031.5.5 0 0 0 0-.063.5.5 0 0 0-.032-.031.5.5 0 0 0-.156-.156.5.5 0 0 0-.031 0 .5.5 0 0 0-.063-.032.5.5 0 0 0-.187-.031.5.5 0 0 0-.281.094.5.5 0 0 0-.032.031.5.5 0 0 0-.03.031.5.5 0 0 0-.063.063.5.5 0 0 0-.032.062.5.5 0 0 0-.03.031.5.5 0 0 0 0 .063.5.5 0 0 0 0 .031.5.5 0 0 0-.032.063.5.5 0 0 0 0 .031c0 .422-.233.788-.594.938-.12.05-.265.062-.406.062a.952.952 0 0 1-.906-.594A1.1 1.1 0 0 1 14 11a.5.5 0 0 0 0-.063.5.5 0 0 0 0-.03.5.5 0 0 0 0-.063.5.5 0 0 0-.031-.031.5.5 0 0 0 0-.063.5.5 0 0 0-.031-.031.5.5 0 0 0-.157-.156.5.5 0 0 0-.031 0 .5.5 0 0 0-.063-.032.5.5 0 0 0-.187-.031.5.5 0 0 0-.281.094.5.5 0 0 0-.031.031.5.5 0 0 0-.032.031.5.5 0 0 0-.062.063.5.5 0 0 0-.031.062.5.5 0 0 0-.032.031.5.5 0 0 0 0 .063.5.5 0 0 0 0 .031.5.5 0 0 0-.031.063.5.5 0 0 0 0 .031c0 .422-.233.788-.594.938-.12.05-.265.062-.406.062a.952.952 0 0 1-.906-.594A1.1 1.1 0 0 1 11 11a.5.5 0 0 0 0-.063.5.5 0 0 0 0-.03.5.5 0 0 0 0-.063.5.5 0 0 0-.031-.031.5.5 0 0 0 0-.063.5.5 0 0 0-.031-.031.5.5 0 0 0-.157-.156.5.5 0 0 0-.031 0 .5.5 0 0 0-.063-.032.5.5 0 0 0-.187-.031.5.5 0 0 0-.281.094.5.5 0 0 0-.031.031.5.5 0 0 0-.032.031.5.5 0 0 0-.062.063.5.5 0 0 0-.031.062.5.5 0 0 0-.032.031.5.5 0 0 0 0 .063.5.5 0 0 0 0 .031.5.5 0 0 0-.031.063.5.5 0 0 0 0 .031c0 .422-.233.788-.594.938-.12.05-.265.062-.406.062a.952.952 0 0 1-.906-.594A1.1 1.1 0 0 1 8 11a.5.5 0 0 0 0-.063.5.5 0 0 0 0-.03.5.5 0 0 0 0-.063.5.5 0 0 0-.031-.031.5.5 0 0 0 0-.063.5.5 0 0 0-.032-.031.5.5 0 0 0-.156-.156.5.5 0 0 0-.031 0 .5.5 0 0 0-.063-.032.5.5 0 0 0-.187-.031.5.5 0 0 0-.281.094.5.5 0 0 0-.032.031.5.5 0 0 0-.03.031.5.5 0 0 0-.063.063.5.5 0 0 0-.032.062.5.5 0 0 0-.03.031.5.5 0 0 0 0 .063.5.5 0 0 0 0 .031.5.5 0 0 0-.032.063A.5.5 0 0 0 7 11c0 .422-.233.788-.594.938-.12.05-.265.062-.406.062a.952.952 0 0 1-.906-.594A1.1 1.1 0 0 1 5 11v-.031a.5.5 0 0 0 0-.031.5.5 0 0 0 0-.032.5.5 0 0 0-.125-.281.5.5 0 0 0-.031 0 .5.5 0 0 0 0-.031.5.5 0 0 0-.032 0 .5.5 0 0 0-.156-.094.5.5 0 0 0-.062 0 .5.5 0 0 0-.094-.031.5.5 0 0 0-.406.219.5.5 0 0 0 0 .03.5.5 0 0 0-.032.032.5.5 0 0 0-.03.063.5.5 0 0 0 0 .03.5.5 0 0 0 0 .032.5.5 0 0 0-.032.063.5.5 0 0 0 0 .03A.5.5 0 0 0 4 11c0 .422-.233.788-.594.938-.12.05-.265.062-.406.062a.952.952 0 0 1-.906-.594A1.1 1.1 0 0 1 2 11v-.406L5.281 2zM7.5 12.313c.03.033.062.061.094.093C7.956 12.77 8.45 13 9 13c.593 0 1.133-.274 1.5-.688.03.034.062.062.094.094.362.363.856.594 1.406.594.593 0 1.133-.274 1.5-.688.03.034.062.062.094.094.362.363.856.594 1.406.594.593 0 1.133-.274 1.5-.688.03.034.062.062.094.094.362.363.856.594 1.406.594h.031v14H5V12.719c.3.18.627.281 1 .281.593 0 1.133-.274 1.5-.688zm12 0c.03.033.062.061.094.093.362.363.856.594 1.406.594.593 0 1.133-.274 1.5-.688.03.034.062.062.094.094.362.363.856.594 1.406.594.593 0 1.133-.274 1.5-.688.03.034.062.062.094.094.362.363.856.594 1.406.594.363 0 .705-.11 1-.281v14.75a.5.5 0 0 0 0 .031v.5h-1V17.969l-.5.031h-6a.5.5 0 0 0-.5.5V28h-.969V12.719c.177-.106.333-.253.469-.406zM8.562 14.78l-2 4 .907.438 2-4-.906-.438zm2 2-2.5 5 .907.438 2.5-5-.906-.438zM21 19h5v9h-5v-9zm1 3v2h1v-2h-1zM2 28h16v2H2v-2zm27 0h2v2h-2v-1.375a.5.5 0 0 0 0-.125V28zm-9.969 1H28v1h-8.969v-1z" color="#000" font-family="sans-serif" font-weight="400" overflow="visible" style="text-indent:0;text-align:start;line-height:normal;text-transform:none;block-progression:tb"/></svg>